<svg width="640" height="420" viewBox="0 0 640 420" xmlns="http://www.w3.org/2000/svg" role="img" aria-label="Patient testimonials illustration">
  <defs>
    <linearGradient id="g" x1="0" y1="0" x2="1" y2="1">
      <stop offset="0%" stop-color="#6B4CD7"/>
      <stop offset="100%" stop-color="#B07CFF"/>
    </linearGradient>
  </defs>
  <rect width="640" height="420" rx="28" fill="url(#g)"/>
  <rect x="40" y="40" width="560" height="340" rx="24" fill="#FFFFFF" opacity="0.12"/>
  <rect x="130" y="130" width="260" height="150" rx="18" fill="#FFFFFF" opacity="0.95"/>
  <path d="M210 280 L240 320 L250 280 Z" fill="#FFFFFF" opacity="0.95"/>
  <rect x="430" y="150" width="80" height="80" rx="16" fill="#FFFFFF" opacity="0.95"/>
  <path d="M470 165 L478 185 L500 185 L482 198 L488 220 L470 207 L452 220 L458 198 L440 185 L462 185 Z" fill="#6B4CD7"/>
  <rect x="160" y="160" width="200" height="12" rx="6" fill="#6B4CD7"/>
  <rect x="160" y="185" width="160" height="10" rx="5" fill="#6B4CD7" opacity="0.7"/>
  <rect x="160" y="208" width="180" height="10" rx="5" fill="#6B4CD7" opacity="0.7"/>
</svg>
