<svg width="640" height="420" viewBox="0 0 640 420" xmlns="http://www.w3.org/2000/svg" role="img" aria-label="Clinic care illustration">
  <defs>
    <linearGradient id="g" x1="0" y1="0" x2="1" y2="1">
      <stop offset="0%" stop-color="#0F6FBF"/>
      <stop offset="100%" stop-color="#27B6C7"/>
    </linearGradient>
  </defs>
  <rect width="640" height="420" rx="28" fill="url(#g)"/>
  <rect x="40" y="40" width="560" height="340" rx="24" fill="#FFFFFF" opacity="0.12"/>
  <rect x="120" y="140" width="240" height="180" rx="14" fill="#FFFFFF" opacity="0.9"/>
  <rect x="150" y="170" width="50" height="50" rx="8" fill="#0F6FBF"/>
  <rect x="220" y="170" width="50" height="50" rx="8" fill="#0F6FBF"/>
  <rect x="290" y="170" width="50" height="50" rx="8" fill="#0F6FBF"/>
  <rect x="150" y="240" width="50" height="50" rx="8" fill="#0F6FBF"/>
  <rect x="220" y="240" width="50" height="50" rx="8" fill="#0F6FBF"/>
  <rect x="290" y="240" width="50" height="50" rx="8" fill="#0F6FBF"/>
  <circle cx="455" cy="210" r="70" fill="#FFFFFF" opacity="0.9"/>
  <rect x="445" y="175" width="20" height="70" rx="6" fill="#0F6FBF"/>
  <rect x="420" y="200" width="70" height="20" rx="6" fill="#0F6FBF"/>
  <rect x="250" y="310" width="80" height="24" rx="6" fill="#27B6C7"/>
</svg>
